<?xml version="1.0" encoding="UTF-8"?>
<!DOCTYPE svg PUBLIC "-//W3C//DTD SVG 1.1//EN" "http://www.w3.org/Graphics/SVG/1.1/DTD/svg11.dtd">
<!-- Creator: CorelDRAW 2018 (64-Bit) -->
<svg xmlns="http://www.w3.org/2000/svg" xml:space="preserve" width="174.213mm" height="136.532mm" version="1.1" style="shape-rendering:geometricPrecision; text-rendering:geometricPrecision; image-rendering:optimizeQuality; fill-rule:evenodd; clip-rule:evenodd"
viewBox="0 0 17450.71 13676.27"
 xmlns:xlink="http://www.w3.org/1999/xlink">
 <defs>
  <style type="text/css">
   <![CDATA[
    .fil25 {fill:black;fill-rule:nonzero}
    .fil5 {fill:#262626;fill-rule:nonzero}
    .fil6 {fill:#27218A;fill-rule:nonzero}
    .fil37 {fill:#311811;fill-rule:nonzero}
    .fil30 {fill:#333333;fill-rule:nonzero}
    .fil17 {fill:#404040;fill-rule:nonzero}
    .fil34 {fill:#4D4D4D;fill-rule:nonzero}
    .fil29 {fill:#595959;fill-rule:nonzero}
    .fil35 {fill:#666666;fill-rule:nonzero}
    .fil7 {fill:#6D64FF;fill-rule:nonzero}
    .fil18 {fill:#737373;fill-rule:nonzero}
    .fil26 {fill:gray;fill-rule:nonzero}
    .fil38 {fill:#999999;fill-rule:nonzero}
    .fil8 {fill:#9D9D9D;fill-rule:nonzero}
    .fil36 {fill:#A3A3A3;fill-rule:nonzero}
    .fil33 {fill:#B0918F;fill-rule:nonzero}
    .fil27 {fill:#C7C7C7;fill-rule:nonzero}
    .fil1 {fill:#CC0007;fill-rule:nonzero}
    .fil20 {fill:#CFAEAF;fill-rule:nonzero}
    .fil11 {fill:#D9D9D9;fill-rule:nonzero}
    .fil22 {fill:#DAB7B8;fill-rule:nonzero}
    .fil28 {fill:#DEDEDE;fill-rule:nonzero}
    .fil3 {fill:#E60008;fill-rule:nonzero}
    .fil21 {fill:#E62E34;fill-rule:nonzero}
    .fil23 {fill:#E67477;fill-rule:nonzero}
    .fil19 {fill:#E6C1C2;fill-rule:nonzero}
    .fil9 {fill:#E6E6E6;fill-rule:nonzero}
    .fil0 {fill:#F2F2F2;fill-rule:nonzero}
    .fil2 {fill:#FF3D44;fill-rule:nonzero}
    .fil4 {fill:#FF999D;fill-rule:nonzero}
    .fil12 {fill:#FFAA00;fill-rule:nonzero}
    .fil16 {fill:#FFB78C;fill-rule:nonzero}
    .fil10 {fill:#FFC7A6;fill-rule:nonzero}
    .fil13 {fill:#FFC800;fill-rule:nonzero}
    .fil15 {fill:#FFE5CC;fill-rule:nonzero}
    .fil24 {fill:#FFEA00;fill-rule:nonzero}
    .fil31 {fill:#FFF27A;fill-rule:nonzero}
    .fil14 {fill:#FFF2E6;fill-rule:nonzero}
    .fil32 {fill:#FFFDE7;fill-rule:nonzero}
    .fil39 {fill:white;fill-rule:nonzero}
   ]]>
  </style>
 </defs>
 <g id="Layer_x0020_1">
  <metadata id="CorelCorpID_0Corel-Layer"/>
  <g id="_2278311678064">
   <path class="fil0" d="M3728.23 5083.4c46.33,26.75 47.49,69.09 1.44,95.8l-1326.78 771.06c-45.16,26.25 -119.1,26.25 -165.48,-0.53l-1334.52 -770.5c-46.37,-26.75 -45.71,-69.09 -0.54,-95.3l1326.77 -771.03c46.08,-26.79 118.2,-26.79 164.57,0l1334.54 770.5z"/>
   <path class="fil1" d="M3558.97 4989.22l-0.32 101.67c-0.04,14.62 -9.69,29.15 -29.12,40.43l0.27 -101.67c19.44,-11.27 29.1,-25.79 29.17,-40.43z"/>
   <path class="fil1" d="M1072.7 5090.18l0.29 -101.66c-0.06,14.8 9.77,29.65 29.69,41.17l-0.29 101.66c-19.93,-11.52 -29.73,-26.36 -29.69,-41.17z"/>
   <polygon class="fil1" points="2248.55,5691.23 2248.24,5792.9 1102.39,5131.35 1102.68,5029.69 "/>
   <polygon class="fil1" points="3529.8,5029.65 3529.53,5131.32 2390.32,5793.35 2390.6,5691.65 "/>
   <path class="fil1" d="M2390.6 5691.65l-0.28 101.7c-38.78,22.52 -102.27,22.52 -142.08,-0.45l0.31 -101.67c39.79,22.97 103.28,22.97 142.05,0.42z"/>
   <path class="fil2" d="M3528.56 4947.38c39.77,22.97 40.8,59.3 1.24,82.27l-1139.2 662.01c-38.77,22.55 -102.26,22.55 -142.05,-0.42l-1145.87 -661.54c-39.8,-22.97 -39.24,-59.34 -0.47,-81.85l1139.2 -662.05c39.55,-22.97 101.46,-22.97 141.28,0l1145.87 661.58z"/>
   <path class="fil3" d="M3087.18 4841.12l0.69 0 -365.07 -1486.61 -813.87 -2.08 -364.24 1480.92 0.37 0c-42.84,140.65 29.89,291.08 218.81,400.16 306.82,177.11 802.68,178.03 1107.58,1.97 185.53,-107.1 256.89,-255.03 215.73,-394.36z"/>
   <path class="fil0" d="M3087.87 4841.12l-21.6 -87.99c-35.4,69.51 -99.99,134.99 -194.83,189.76 -304.89,175.99 -800.76,175.14 -1107.58,-2.01 -96.51,-55.72 -162.28,-122.3 -198.22,-192.79l-20.98 85.26 0.39 0c-42.84,140.65 29.89,291.08 218.81,400.16 306.82,177.11 802.68,178.03 1107.58,1.97 185.53,-107.1 256.89,-255.03 215.73,-394.36l0.69 0z"/>
   <path class="fil4" d="M2605.4 3539.48c-158.94,91.76 -417.42,91.27 -577.34,-1.03 -159.93,-92.34 -160.74,-241.56 -1.81,-333.33 158.94,-91.73 417.41,-91.27 577.34,1.02 159.92,92.38 160.73,241.57 1.81,333.34z"/>
   <path class="fil5" d="M2467.16 3459.64c-83.06,47.99 -218.16,47.74 -301.74,-0.52 -83.58,-48.27 -83.99,-126.26 -0.92,-174.18 83.04,-47.95 218.12,-47.74 301.7,0.53 83.59,48.27 84.03,126.26 0.96,174.17z"/>
   <path class="fil3" d="M2164.44 3372.18c83.07,-47.95 218.14,-47.7 301.72,0.53 22.37,12.93 38.28,27.99 48.74,44.06 28.98,-43.99 12.91,-95.72 -48.74,-131.31 -83.58,-48.27 -218.65,-48.48 -301.72,-0.53 -60.83,35.13 -76.42,86.3 -47.79,130.18 10.32,-15.65 25.99,-30.35 47.79,-42.93z"/>
   <path class="fil0" d="M2826.91 3777.37c-1.9,74.49 -51.58,147.14 -148.07,203.47 -199.67,115.62 -523.51,114.63 -723.19,-0.96 -98.41,-56.35 -149.02,-130.85 -150.94,-205.38l44.91 -182.48c-1.91,17.21 0,34.38 3.83,51.56 3.81,15.34 9.54,30.6 18.14,44.95 21.04,40.14 60.19,78.34 114.65,109.83 183.42,105.13 479.58,106.05 661.06,0.99 34.42,-20.07 62.11,-42.05 83.14,-64.95 24.82,-27.71 40.12,-57.32 47.76,-86.97 4.78,-18.13 5.73,-36.32 2.86,-54.42l45.85 184.36z"/>
   <path class="fil0" d="M2980.82 4404.07c-12.42,87.85 -76.44,172.9 -192.03,239.76 -259.85,150 -682.11,149.05 -942.9,-1.91 -117.51,-67.84 -182.48,-153.79 -194.89,-242.66l56.34 -228.31c0.96,11.45 2.87,22.94 5.75,33.47 6.7,30.56 21.02,61.13 42.99,90.74 29.6,40.15 72.59,77.36 129.92,109.87 238.83,137.57 624.78,138.52 862.65,1.91 64.98,-38.2 112.74,-82.16 141.41,-128.95 14.31,-22.97 23.89,-45.87 28.66,-69.76 2.85,-11.49 4.78,-22.94 5.73,-33.43l56.36 229.27z"/>
   <path class="fil1" d="M10169.8 12855.31l-0.32 101.66c-0.03,14.56 -9.65,29.08 -29.11,40.43l0.28 -101.66c19.43,-11.35 29.08,-25.87 29.15,-40.43z"/>
   <path class="fil1" d="M7683.54 12956.28l0.28 -101.67c-0.03,14.77 9.79,29.61 29.72,41.14l-0.32 101.66c-19.89,-11.53 -29.72,-26.36 -29.68,-41.13z"/>
   <polygon class="fil1" points="8859.39,13557.28 8859.1,13658.96 7713.22,12997.4 7713.54,12895.74 "/>
   <polygon class="fil1" points="10140.65,12895.74 10140.37,12997.4 9001.2,13659.42 9001.44,13557.75 "/>
   <path class="fil1" d="M9001.44 13557.75l-0.24 101.67c-38.81,22.54 -102.3,22.54 -142.1,-0.46l0.29 -101.68c39.82,23.02 103.28,23.02 142.05,0.47z"/>
   <path class="fil2" d="M10139.38 12813.43c39.83,22.97 40.81,59.3 1.27,82.31l-1139.21 662.01c-38.77,22.55 -102.23,22.55 -142.05,-0.47l-1145.85 -661.53c-39.83,-23.01 -39.23,-59.3 -0.49,-81.85l1139.24 -662.01c39.54,-23.01 101.45,-23.01 141.28,0l1145.81 661.54z"/>
   <path class="fil3" d="M9698.04 12707.22l0.71 0 -365.11 -1486.65 -813.89 -2.08 -364.22 1480.92 0.39 0c-42.86,140.62 29.86,291.07 218.81,400.12 306.8,177.14 802.69,178.07 1107.58,2.01 185.52,-107.1 256.87,-255.02 215.73,-394.32z"/>
   <path class="fil0" d="M9698.76 12707.22l-21.67 -88.03c-35.37,69.52 -99.97,134.99 -194.78,189.76 -304.88,176.02 -800.78,175.14 -1107.58,-2.01 -96.5,-55.73 -162.3,-122.31 -198.2,-192.79l-21 85.26 0.39 0c-42.86,140.62 29.86,291.07 218.81,400.12 306.8,177.14 802.69,178.07 1107.58,2.01 185.52,-107.1 256.87,-255.02 215.73,-394.32l0.71 0z"/>
   <path class="fil4" d="M9216.22 11405.55c-158.91,91.71 -417.4,91.28 -577.3,-1.08 -159.94,-92.31 -160.75,-241.54 -1.8,-333.26 158.91,-91.78 417.37,-91.31 577.3,1.02 159.94,92.3 160.75,241.56 1.8,333.32z"/>
   <path class="fil5" d="M9077.98 11325.73c-83.04,47.93 -218.13,47.71 -301.71,-0.56 -83.57,-48.23 -83.99,-126.22 -0.91,-174.17 83,-47.96 218.14,-47.71 301.71,0.54 83.57,48.22 83.99,126.24 0.91,174.19z"/>
   <path class="fil3" d="M8775.29 11238.24c83.07,-47.95 218.14,-47.7 301.71,0.57 22.37,12.86 38.3,27.98 48.76,43.99 28.94,-43.96 12.9,-95.7 -48.76,-131.27 -83.57,-48.25 -218.64,-48.5 -301.71,-0.54 -60.85,35.13 -76.41,86.3 -47.82,130.15 10.33,-15.63 26.04,-30.32 47.82,-42.9z"/>
   <path class="fil0" d="M9437.76 11643.42c-1.91,74.53 -51.56,147.11 -148.07,203.5 -199.66,115.55 -523.52,114.62 -723.18,-0.95 -98.38,-56.41 -149.05,-130.9 -150.95,-205.43l44.92 -182.47c-1.91,17.2 0,34.41 3.82,51.59 3.85,15.31 9.58,30.57 18.16,44.92 21.03,40.11 60.18,78.3 114.63,109.87 183.4,105.08 479.56,106.05 661.09,0.92 34.42,-20.04 62.08,-42.02 83.14,-64.96 24.81,-27.71 40.08,-57.32 47.75,-86.93 4.77,-18.14 5.72,-36.28 2.85,-54.45l45.84 184.39z"/>
   <path class="fil0" d="M9591.64 12270.12c-12.4,87.89 -76.43,172.9 -191.98,239.81 -259.87,149.96 -682.12,149.01 -942.94,-1.95 -117.5,-67.81 -182.49,-153.78 -194.86,-242.62l56.33 -228.35c0.98,11.48 2.85,22.94 5.72,33.44 6.72,30.55 21.03,61.15 43.01,90.76 29.61,40.12 72.61,77.4 129.93,109.89 238.84,137.52 624.8,138.51 862.65,1.9 64.99,-38.21 112.76,-82.16 141.39,-128.99 14.31,-22.9 23.89,-45.87 28.69,-69.72 2.86,-11.49 4.74,-22.95 5.73,-33.46l56.32 229.29z"/>
   <path class="fil6" d="M12190.7 8845.2c-1859.16,1073.41 -4882.91,1067.93 -6753.81,-12.19 -1870.82,-1080.12 -1880.3,-2825.93 -21.1,-3899.33 1859.17,-1073.41 4882.92,-1067.9 6753.81,12.22 1870.83,1080.12 1880.3,2825.93 21.1,3899.3z"/>
   <path class="fil7" d="M5415.8 5947.18c1859.17,-1073.37 4882.92,-1067.93 6753.81,12.22 714.59,412.57 1156.7,922.38 1327.73,1454.66 279.77,-865.51 -163.14,-1795.81 -1327.73,-2468.17 -1870.89,-1080.12 -4894.64,-1085.63 -6753.81,-12.22 -1149.03,663.39 -1583.36,1583.5 -1306.63,2444.63 169.62,-524.86 604.77,-1025.91 1306.63,-1431.12z"/>
   <polygon class="fil8" points="9167.6,7962.29 9531.54,7830.91 9307.36,9296.17 8943.38,9427.52 "/>
   <polygon class="fil8" points="9472.45,5969.48 9836.47,5838.13 9612.25,7303.39 9248.31,7434.71 "/>
   <path class="fil0" d="M9307.47 9295.93l506.13 291.99c-169.76,20.89 -341.43,36.11 -513.7,45.59l-356.66 -205.85 364.22 -131.73z"/>
   <polygon class="fil8" points="9777.45,3976.06 10141.46,3844.72 9917.14,5310.54 9553.24,5441.89 "/>
   <polygon class="fil0" points="9248.31,7434.71 9612.25,7303.39 12049.64,8710.6 11685.66,8841.94 "/>
   <polygon class="fil0" points="9630.91,1903.43 9994.88,1772.08 10420.91,2018.06 10056.97,2149.41 "/>
   <polygon class="fil8" points="10056.97,2149.41 10420.91,2018.06 10222.07,3317.73 9858.12,3449.08 "/>
   <polygon class="fil0" points="9553.24,5441.89 9917.14,5310.54 12354.57,6717.78 11990.6,6849.09 "/>
   <polygon class="fil0" points="9858.12,3449.08 10222.07,3317.73 12659.49,4724.97 12295.52,4856.31 "/>
   <polygon class="fil0" points="12494.37,3556.61 12858.34,3425.29 13284.89,3671.57 12920.89,3802.91 "/>
   <path class="fil9" d="M9248.6 7434.85l223.58 -1465.16 316.09 182.41 2121.41 1224.44 -176.09 1151.61 -48.16 313.55 -2436.83 -1406.85zm528.89 -3458.64l316.09 182.48 201.46 116.51 1919.95 1107.9 -176.13 1152.24 -48.12 313.55 -2437.47 -1406.88 191.28 -1252.29 32.94 -213.5zm2716.84 -419.36l-150.78 985.67 -48.13 313.55 -2437.46 -1406.85 198.91 -1299.85 -425.67 -245.77 -343.34 2244.27 -839.97 5490.08c283.79,12.69 568.82,11.38 852.02,-4.45l-356.66 -205.85 224.25 -1465.15 316.09 182.41 1876.27 1083.2c278.07,-100.71 541.58,-219.8 785.44,-357.26l546.03 -3568.82 229.35 -1499.4 -426.35 -245.77z"/>
   <path class="fil8" d="M13284.86 3671.53l-291.99 1908.57 -466.85 3050.07c-103.89,74.07 -216.01,145.67 -335.1,214.71 -15.23,8.87 -30.38,17.11 -45.62,25.97l546.03 -3568.82 229.35 -1499.4 364.18 -131.1z"/>
   <path class="fil10" d="M8021.54 9606.86c-670.24,-66.22 -1321.23,-215.24 -1904.05,-447.16 -11.76,-876.69 20.21,-2063.21 20.21,-2081.76 0.64,-43.39 -2.93,-87.43 -17.63,-128.52 -8.8,-24.77 -23.15,-47.32 -41.1,-68.16 -69.48,-83.15 -193.37,-141.53 -267.4,-205.49 -78.3,-67.81 -146.47,-146.13 -210.36,-227.61 -27.1,-35.23 -53.85,-70.78 -79.92,-106.68 -46.97,-64.25 -96.86,-138.94 -153.3,-206.13 -3.61,-4.24 -6.82,-8.47 -10.78,-12.4 -54.73,-63.89 -116.44,-120 -188.49,-153.26 -30.32,-48.59 -43.71,-128.52 -8.83,-174.17 13.11,-17.95 33.65,-28.06 52.87,-38.84 49.25,-28.35 92.94,-64.57 132.08,-105.66 6.86,-6.82 13.39,-13.71 19.54,-20.89 29.05,-32.26 55.13,-66.51 79.93,-102.06 43.04,-61.66 80.89,-127.52 112.52,-196.01l4.24 -8.8c8.48,-18.26 16.33,-36.85 23.82,-55.47 38.8,-96.51 65.86,-197.29 79.25,-299.38 1.94,-16.01 3.58,-32.25 4.88,-48.26 1.31,-13.68 1.94,-27.08 2.61,-40.43 1.31,-28.06 1.63,-55.76 0.64,-83.5 -2.61,-86.13 -15.98,-171.89 -41.73,-255.03 -15.98,-51.88 -36.22,-102.13 -58.07,-151.68 -15.65,-36.22 -32.29,-72.08 -48.58,-107.95 -3.29,-6.5 -6.22,-13.39 -9.16,-19.89 -4.24,-9.16 -8.79,-18.62 -13.36,-28.06 -6.18,-13.04 -12.71,-26.39 -18.58,-40.11 -10.43,-21.84 -19.26,-44.35 -25.12,-66.54 -12.05,-46.96 -14.99,-85.44 -50.21,-123.61 15.97,-16.33 36.85,-26.43 59.01,-33.61 10.11,-3.26 20.56,-6.18 30.99,-8.44 22.86,-5.59 45.66,-10.46 68.81,-14.38 87.42,-15.66 175.84,-20.85 264.53,-18.59 79.26,1.63 159.17,9.48 238.42,21.21 121.63,17.92 242.63,45.02 361.05,74.71 83.82,20.21 156.54,49.22 232.83,89.01 43.39,23.18 88.1,46.33 125.24,79.3 49.92,43.67 84.17,100.11 110.57,161.06 29.68,67.53 49.61,140.89 71.45,208.42l0.64 2.29c42.08,129.48 82.83,259.63 122.66,389.74 78.58,254.4 150,506.81 232.2,760.25 83.82,257.32 162.4,516.59 232.87,777.88 28.38,106.33 63.25,292.2 100.78,522.78 147.43,892.01 337.86,2445.45 360.37,2579.84 0.67,4.24 1.31,8.12 1.66,12.05z"/>
   <path class="fil11" d="M6024.48 749.37l84.56 6061.88c0.46,37 -23.25,74.32 -71.45,103.36 -96.93,58.41 -255.81,60.95 -355.18,5.69 -50.03,-27.85 -75.37,-64.95 -75.9,-102.41l-84.56 -6061.91c0.49,37.49 25.9,74.64 75.9,102.44 99.37,55.27 258.29,52.73 355.22,-5.69 48.12,-29.05 71.91,-66.36 71.41,-103.36z"/>
   <path class="fil0" d="M5948.62 647.01c99.41,55.29 101.38,147.28 4.46,205.73 -96.93,58.42 -255.85,60.96 -355.22,5.69 -99.44,-55.3 -101.38,-147.32 -4.45,-205.74 96.93,-58.41 255.8,-60.98 355.21,-5.68z"/>
   <path class="fil12" d="M7344.76 1920.88l-3420.47 -1902.42c-39.79,-22.16 -75.77,-23.68 -101.49,-8.2l-69.51 41.88c25.69,-15.48 61.66,-13.89 101.45,8.23l3420.54 1902.46c78.91,43.88 144.04,152.62 145.2,243.23l32.47 2461.98c0.6,45.1 -14.77,76.97 -40.07,92.24l69.51 -41.91c25.33,-15.24 40.67,-47.18 40.11,-92.24l-32.47 -2461.98c-1.17,-90.57 -66.33,-199.38 -145.27,-243.27z"/>
   <path class="fil13" d="M7275.28 1962.83c78.91,43.88 144.04,152.62 145.2,243.23l32.47 2461.98c1.2,90.57 -62.01,127.96 -140.93,84.07l-3420.5 -1902.46c-78.95,-43.89 -144.71,-153.01 -145.88,-243.62l-32.47 -2461.95c-1.17,-90.57 62.66,-127.61 141.56,-83.71l3420.54 1902.46z"/>
   <path class="fil5" d="M4655.38 1714.48l-279.52 -161.14 279.52 -252.13 0 413.28zm170.58 98.49l0 -871.18 -1.94 -0.95 -704.49 613.45 0 1.98 535.85 309.52 0 320.58 170.58 98.52 0 -320.62 150.99 87.11 0 -151.02 -150.99 -87.39z"/>
   <path class="fil5" d="M5814.16 2540.91c-53.5,57.71 -129.8,58.06 -229.27,0.67 -13.36,-7.53 -26.11,-16.01 -38.48,-24.81 -79.93,-56.07 -142.87,-135.66 -188.18,-238.1 -52.83,-118.38 -79.57,-252.77 -80.89,-402.46 1.31,-147.39 28.06,-249.51 80.89,-306.23 42.73,-46.65 101.07,-55.13 174.78,-25.8 16.33,6.54 33.61,15.03 51.88,25.44 99.47,57.75 175.77,145.13 229.27,262.59 53.18,117.39 80.57,249.8 81.56,396.88 -0.99,149.72 -28.38,253.76 -81.56,311.82zm228.64 -475.85c-8.45,-41.42 -19.58,-82.2 -32.62,-122.63 -41.09,-125.9 -98.17,-236.76 -171.24,-332.98 -73.36,-95.9 -157.5,-171.56 -252.42,-226.33 -19.22,-11.14 -37.84,-21.25 -56.08,-29.72 -124.6,-60.32 -224.74,-62.31 -299.77,-5.23 -86.08,65.23 -129.12,207.46 -129.12,426.31 0,137.28 20.52,268.7 61.62,394.61 41.1,125.91 98.17,237.12 171.25,333.66 63.61,83.82 134.99,151.99 214.6,204.17 12.4,8.13 24.77,15.98 37.49,23.15 94.92,56.11 179.05,78.27 252.42,66.86 73.07,-11.42 130.15,-56.41 171.24,-135.03 16.65,-31.62 29.69,-68.81 39.48,-110.58 14.66,-61.3 21.84,-133.72 21.84,-216.9 0,-91.94 -9.44,-181.99 -28.69,-269.37z"/>
   <path class="fil5" d="M6693.46 2891.21l-279.2 -161.14 279.2 -252.09 0 413.24zm170.57 98.49l0 -871.14 -1.62 -0.99 -704.81 613.49 0 1.94 535.86 309.52 0 320.61 170.57 98.49 0 -320.62 150.99 87.08 0 -150.99 -150.99 -87.39z"/>
   <path class="fil5" d="M4764.96 2827.28c-0.67,-5.59 -0.99,-13.39 -0.99,-23.18 0,-41.07 10.78,-68.84 32.29,-82.83 21.21,-14.03 48.27,-11.74 81.21,7.17 23.47,13.7 43.39,31.94 59.37,55.08 15.66,23.19 28.06,48.31 36.53,76.02l-208.41 -32.26zm118.69 189.8c-22.51,-13.04 -42.72,-30.36 -60.31,-52.2 -17.6,-21.84 -31.66,-46.01 -42.06,-72.37l284.08 49.54c-11.76,-62.94 -33.29,-119.01 -64.63,-168.62 -31.27,-49.54 -70.43,-88.07 -117.08,-114.81 -36.5,-21.17 -70.07,-30.64 -100.43,-28.66 -30.67,1.62 -54.8,14.34 -72.43,37.49 -17.6,23.46 -26.4,55.12 -26.4,95.58 0,41.7 8.16,83.79 24.49,126.19 15.98,42.4 38.77,81.53 68.45,117.75 30.04,35.86 64.6,65.55 104.39,88.38 20.89,12.08 42.41,20.2 64.57,24.8 22.19,4.56 42.72,5.2 61.97,1.62l-37.17 -90.03c-28.38,7.52 -57.71,2.61 -87.43,-14.66z"/>
   <path class="fil5" d="M5336.99 2935.24c-19.22,-1.62 -37.17,0.95 -54.1,8.48 -17,7.49 -30.35,19.54 -39.47,36.85l-5.87 -100.81 -72.09 -41.42 0 410.94 80.58 46.64 0 -187.85c0,-26.43 5.86,-47.92 17.91,-64.57 11.77,-16.64 28.06,-25.79 49.23,-26.75 20.88,-0.99 44.37,6.53 70.46,22.83l3.61 -90.36c-14.66,-7.49 -31.31,-12.4 -50.25,-13.99z"/>
   <path class="fil5" d="M5662.17 3123.09c-18.9,-1.66 -36.86,0.95 -53.78,8.44 -17.28,7.52 -30.36,19.57 -39.48,36.86l-6.22 -100.79 -8.44 -4.88 -63.29 -36.5 0 410.94 68.8 39.79 11.77 6.82 0 -187.86c0,-26.43 5.87,-47.95 17.6,-64.6 11.73,-16.61 28.38,-25.72 49.22,-26.72 21.21,-0.98 44.71,6.51 70.78,22.83l3.26 -90.35c-14.31,-7.49 -30.95,-12.37 -50.21,-13.99z"/>
   <path class="fil5" d="M6064.66 3637.07c-4.24,6.22 -9.51,11.1 -15.66,15.34 -21.87,14.35 -49.61,11.74 -82.86,-7.48 -21.53,-12.41 -41.06,-29.69 -58.38,-52.52 -17.63,-22.83 -31.62,-47.95 -41.73,-75.69 -10.11,-27.71 -15.03,-54.45 -15.03,-80.22 0,-25.8 4.92,-46.61 15.03,-62.66 10.11,-16.26 23.81,-25.4 41.09,-28.34 17.29,-2.93 36.86,1.62 59.02,14.69 33.25,19.22 60.99,48.91 82.86,89.02 5.2,9.47 9.76,18.58 13.68,28.02 13.03,30.99 19.22,61.66 19.22,92.66 0,29.05 -5.51,51.53 -17.25,67.17zm74.99 -146.12c-16.64,-42.72 -39.79,-82.16 -69.47,-118.34 -2.93,-3.61 -5.87,-7.21 -9.13,-10.78 -27.39,-31.31 -58.37,-57.08 -92.3,-76.65 -38.16,-22.2 -72.41,-32.3 -102.72,-30.67 -30.36,1.94 -53.86,14.34 -70.78,38.16 -17.29,23.5 -25.8,55.44 -25.8,95.9 0,43.67 8.51,87.08 25.8,129.8 16.92,43.03 40.42,82.19 70.42,117.71 30.04,35.55 63.61,64.28 101.1,85.79 37.21,21.53 70.5,31.98 99.52,30.64l3.57 0c30,-1.94 53.15,-14.66 69.79,-38.81 16.33,-23.82 24.45,-56.44 24.45,-97.17 0,-41.1 -8.12,-82.87 -24.45,-125.59z"/>
   <path class="fil5" d="M6443.66 3574.13c-18.98,-1.62 -36.86,1.31 -53.86,8.48 -17.28,7.49 -30.31,19.89 -39.44,36.86l-6.22 -100.79 -71.73 -41.45 0 411.29 80.54 46.33 0 -187.54c0,-26.75 5.87,-48.27 17.63,-64.91 11.73,-16.65 28.38,-25.44 49.26,-26.76 21.17,-0.95 44.64,6.54 70.78,22.87l3.22 -90.36c-14.34,-7.52 -30.99,-12.4 -50.17,-14.03z"/>
   <path class="fil14" d="M4989.21 5747.88c-1.2,62.05 16.64,124.6 52.69,175.21 56.25,79.01 146.37,123.19 234.07,158.21 44.02,17.56 79.01,45.52 124.74,60.53 50.03,16.43 102.4,24.98 154.81,29.58 90.57,7.94 185.98,3.32 265.81,-40.29 104.99,-57.39 168.06,-183.12 151.24,-301.57 -1.98,-14.27 -4.99,-29.12 -0.11,-42.69 4.99,-14.02 17.43,-23.78 28.56,-33.64 106.61,-94.07 132.47,-267.05 58.13,-388.18 -7.14,-11.55 -15.34,-23.67 -15.02,-37.24 0.31,-12.16 7.34,-22.94 13.18,-33.64 38.87,-71.28 24.41,-167.64 -33.65,-224.43 45.77,-22.52 72.37,-73.25 78.73,-123.86 6.43,-50.61 -4.24,-101.63 -15.8,-151.28 -56.76,-244.11 -142.09,-492.28 -318.78,-669.96 -71.59,-71.91 -159.73,-131.59 -259.49,-149.9 -77.95,-14.34 -163.82,-0.1 -229.02,46.3 -70.11,49.92 -111.56,122.73 -112.41,211.11 -0.63,60.99 12.26,115.44 28.13,174.07 0.88,3.36 1.73,6.99 0.53,10.25 -2.12,5.76 -9.33,7.45 -15.34,8.54 -92.87,16.33 -178.06,72.55 -229.52,151.57 -64,98.24 -77.88,237.5 -18.55,340.61 29.61,51.46 71.28,95.02 115.88,134.15 5.05,4.42 10.56,11.38 6.96,16.99l-6.47 4.67c-72.51,34.95 -113.43,128.7 -121.06,204.82 -5.69,56.86 3.57,115.95 31.06,166.05 27.49,50.14 74.06,90.53 129.09,106.02 -29.4,13.42 -50.54,40.35 -65.69,68.94 -21.07,39.65 -31.84,84.28 -32.73,129.09z"/>
   <path class="fil15" d="M4989.21 5747.88c-1.2,62.05 16.64,124.6 52.69,175.21 63.33,88.91 162.44,155.94 264.18,192.27 78.98,28.2 165.95,48.72 249.45,56.04 90.57,7.94 185.98,3.32 265.81,-40.29 104.99,-57.39 168.06,-183.12 151.24,-301.57 -1.98,-14.27 -4.99,-29.12 -0.11,-42.69 4.99,-14.02 17.43,-23.78 28.56,-33.64 106.61,-94.07 132.47,-267.05 58.13,-388.18 -7.14,-11.55 -15.34,-23.67 -15.02,-37.24 0.31,-12.16 7.34,-22.94 13.18,-33.64 38.87,-71.28 24.41,-167.64 -33.65,-224.43 45.77,-22.52 72.37,-73.25 78.73,-123.86 6.43,-50.61 -4.24,-101.63 -15.8,-151.28 -56.76,-244.11 -142.09,-492.28 -318.78,-669.96 -71.59,-71.91 -159.73,-131.59 -259.49,-149.9 -77.95,-14.34 -163.82,-0.1 -229.02,46.3 -70.11,49.92 -111.56,122.73 -112.41,211.11 -0.63,60.99 12.26,115.44 28.13,174.07 0.88,3.36 1.73,6.99 0.53,10.25 -2.12,5.76 -9.33,7.45 -15.34,8.54 -92.87,16.33 -178.06,72.55 -229.52,151.57 -64,98.24 -77.88,237.5 -18.55,340.61 29.61,51.46 71.28,95.02 115.88,134.15 5.05,4.42 10.56,11.38 6.96,16.99l-6.47 4.67c-72.51,34.95 -113.43,128.7 -121.06,204.82 -5.69,56.86 3.57,115.95 31.06,166.05 27.49,50.14 74.06,90.53 129.09,106.02 -29.4,13.42 -50.54,40.35 -65.69,68.94 -21.07,39.65 -31.84,84.28 -32.73,129.09z"/>
   <path class="fil16" d="M5976.57 5778.73l-4.28 8.09c-1.63,4.84 -2.19,9.15 -2.72,13.95 -71.49,3.22 -143.5,1.1 -214.99,-3.22 -92.48,-4.84 -173.64,-40.88 -257.5,-79.04 -86,-39.23 -172.02,-78.49 -261.25,-109.62 -44.06,-15.62 -89.26,-29.04 -134.95,-39.29 -11.28,-2.65 -23.11,-4.28 -35.45,-6.4 7,-5.41 13.96,-9.72 22.06,-13.46 -19.37,-5.41 -38.16,-14.52 -54.84,-25.83 101.02,15.62 200.5,37.67 289.73,84.98 84.91,44.6 168.76,80.61 262.87,99.98 129.55,26.86 260.19,50.5 391.33,69.86z"/>
   <path class="fil16" d="M6058.83 5236.87c-62.9,36.04 -126.33,72.58 -194.6,96.79 -37.63,13.42 -76.9,23.11 -116.13,29.01 -25.26,4.31 -51.59,6.43 -76.89,3.25 -20.96,-3.25 -41.38,-9.15 -61.24,-15.62 -118.27,-38.7 -234.39,-85.97 -342.45,-148.91 -51.07,-30.07 -99.97,-61.27 -151.6,-90.28 -22.02,-12.37 -44.07,-25.27 -65.03,-39.27l4.28 -3.75c3.26,-5.37 -2.11,-12.36 -6.96,-16.68 -3.75,-3.22 -6.99,-6.43 -10.74,-9.65l3.75 1.59c23.67,10.74 47.31,22.05 69.9,34.95 23.11,14.48 341.85,196.72 371.43,211.28 49.47,23.61 100.54,44.07 153.76,58.03 30.07,8.09 61.8,13.99 93.01,11.84 40.85,-2.68 79.54,-18.8 117.18,-34.42 70.96,-29.58 141.38,-58.59 212.34,-88.17z"/>
   <path class="fil16" d="M6055.05 5072.41c-8.06,-1.63 -15.59,-3.75 -23.11,-7.53 -16.12,-6.46 -31.7,-16.15 -47.32,-25.26 -59.12,-34.42 -122.03,-68.28 -188.7,-82.27 -72.02,-15.06 -144.57,-43 -212.84,-69.86 -28.52,-11.31 -55.9,-25.83 -82.8,-40.89 -67.17,-37.59 -117.71,-80.07 -160.71,-132.72 -27.99,-34.42 -53.22,-73.15 -77.43,-117.22 -30.63,-55.37 -57.49,-112.86 -80.6,-171.46 5.9,-1.62 11.83,-3.78 13.95,-8.61l0 -1.1c23.64,43.57 48.91,86.05 72.58,130.65 25.26,47.84 57.53,92.48 90.32,134.95 25.23,32.22 50.5,64.49 82.23,90.29 40.85,34.38 90.85,57 140.82,75.8 55.37,20.96 123.65,48.9 182.81,50.53 55.86,1.63 86.51,16.65 130.07,53.75 46.23,38.7 94.6,75.8 144.07,109.65 5.37,3.78 11.28,7.56 16.65,11.31z"/>
   <path class="fil14" d="M4784.88 4813.1c74.03,48.9 163.94,66.64 251.74,79.05 93.82,13.28 192.52,21.2 280.65,-13.68 21.13,-8.4 42.89,-19.39 65.44,-16.22 13.18,1.83 25.12,8.41 36.86,14.66 61.06,32.47 125.09,59.33 190.99,80.15 33.26,10.53 70.75,19.15 101.74,3.22 35.69,53.47 80.54,100.78 131.98,139.33 -16.22,191.63 41.98,397.09 127.1,568.02 18.63,37.34 39.9,74.74 72.41,100.88 32.73,26.36 74.18,39.16 115.05,48.84 93.12,22.02 192.48,30.49 283.45,0.81 121.84,-39.79 214.49,-144.95 263.89,-263.22 73.75,-176.31 60.71,-378.51 9.09,-562.51 -21.49,-76.5 -50.5,-153.15 -103.4,-212.41 -43.32,-48.55 -100.18,-82.66 -156.04,-115.98 -144.6,-86.23 -289.14,-172.45 -433.73,-258.68 -193.37,-115.3 -405.14,-234.85 -628.79,-209.23 -21.25,2.44 -42.8,6.36 -61.31,17.04 -22.13,12.72 -37.88,33.85 -54.77,52.97 -100.08,113.43 -252.35,166.97 -401.68,191.07 -81.32,13.1 -193.94,52.69 -208,150.53 -11.41,79.61 54.81,164.04 117.32,205.35z"/>
   <path class="fil3" d="M4678.38 4651.72c10.03,29.82 33.36,54.87 62.37,67.03 22.34,9.33 47,11.13 71.17,11.09 34.88,0 70.15,-3.6 102.97,-15.41 44.81,-16.15 83.89,-47.74 109.01,-88.27 25.12,-40.46 36.08,-89.54 30.6,-136.86 -1.13,-9.97 -3.36,-20.56 -10.5,-27.6 -8.86,-8.73 -22.61,-9.58 -35.05,-9.55 -102.02,0.32 -386.1,33.89 -330.58,199.56z"/>
   <path class="fil16" d="M5415.91 4875.12c-10.75,-5.37 -21.53,-10.78 -33.33,-12.9 -6.99,-1.09 -13.95,-0.56 -20.99,1.06 5.4,-16.11 10.78,-32.79 10.78,-53.74 -1.06,-44.1 -12.41,-87.64 -24.17,-130.08 -3.79,-15.62 -8.62,-31.2 -15.63,-45.17 44.06,72.55 56.97,160.19 83.33,240.83z"/>
   <path class="fil16" d="M5545.99 4199.96c-19.86,87.61 -49.44,175.78 -111.81,239.73 -11.28,11.31 -23.64,22.05 -38.7,27.95 43,-49.47 75.23,-109.11 94.07,-171.98 9.68,-32.84 18.83,-69.9 6.46,-101.6 16.65,1.06 33.29,2.68 49.97,5.9z"/>
   <path class="fil16" d="M5306.25 4464.99c-25.26,-44.13 -31.69,-97.32 -22.62,-147.33 6.5,-33.85 19.93,-66.11 37.67,-95.16l2.12 -3.22c2.68,-2.15 5.4,-4.31 8.58,-5.94 11.31,-6.39 24.2,-10.7 37.66,-13.39 -45.16,82.24 -70.95,169.35 -63.43,265.04z"/>
   <path class="fil16" d="M5154.55 5145.27c-15.02,60.92 -5.86,123.08 -13.1,184.81 -7.53,64.11 -28.24,127.35 -66.9,179.65 14.99,-62.76 23.4,-126.85 33.26,-190.6 4.88,-31.8 10.15,-63.54 16.65,-95.1 5.79,-27.92 22.65,-51.42 30.1,-78.76z"/>
   <path class="fil16" d="M5101.86 5723.61c-17.81,42.79 -20.59,91.09 -11.62,136.57 17.6,-70.35 39.9,-142.09 86.76,-197.42 14.91,-17.64 32.69,-33.33 54.8,-41.03 -29.01,6.61 -51.38,7.98 -75.31,27.67 -23.99,19.68 -42.75,45.59 -54.63,74.22z"/>
   <path class="fil16" d="M5683.52 5334.22c-5.87,-58.87 0.21,-119.86 36.85,-168.34 34.25,-45.38 59.69,-108.38 109.15,-140.97 -32.86,21.7 -65.86,43.43 -95.16,69.73 -69.69,62.51 -106.08,157.46 -50.54,242.55l-0.31 -2.96z"/>
   <path class="fil0" d="M5441.98 13573.62l-5386.66 -3115.98c-81.95,-47.31 -71.67,-129.96 22.96,-184.6l486.81 -281.07c94.65,-54.63 237.81,-60.56 319.76,-13.25l5386.64 3116.01c81.99,47.28 71.7,129.94 -22.93,184.57l-486.81 281.07c-94.67,54.63 -237.82,60.57 -319.77,13.25z"/>
   <path class="fil17" d="M5961.34 13054.4l0 76.12c-0.18,67.81 -44.81,135.52 -133.83,187.29 -179.3,104.22 -470.9,104.22 -651.76,-0.21 -90.85,-52.44 -136.23,-121.27 -136.01,-189.98l0 -76.11c-0.22,68.7 45.16,137.53 136.01,189.98 180.85,104.41 472.46,104.41 651.76,0.2 89.02,-51.74 133.65,-119.44 133.83,-187.29z"/>
   <path class="fil18" d="M5825.04 12864.15c180.86,104.43 181.82,273.29 2.47,377.54 -179.3,104.21 -470.9,104.21 -651.76,-0.2 -180.53,-104.23 -181.46,-273.14 -2.15,-377.34 179.33,-104.21 470.94,-104.21 651.44,0z"/>
   <path class="fil5" d="M5634.37 12973.64c74.56,43.06 74.98,112.74 1.02,155.71 -73.92,42.97 -194.22,42.97 -268.81,-0.07 -74.42,-43.01 -74.81,-112.62 -0.85,-155.64 73.92,-42.96 194.22,-42.96 268.64,0z"/>
   <path class="fil5" d="M5961.23 13054.65l0 76.05c0,67.66 -44.77,135.3 -133.93,186.97 -90.07,52.58 -208.45,78.67 -326.83,78.17l0 -76.09c118.38,0.46 236.76,-25.58 326.83,-78.17 89.16,-51.65 133.93,-119.29 133.93,-186.93z"/>
   <path class="fil17" d="M5670.09 9425.11l0 3620.18c-0.07,24.94 -16.47,49.85 -49.26,68.87 -65.97,38.36 -173.25,38.36 -239.79,-0.07 -33.4,-19.3 -50.11,-44.61 -50.03,-69.86l0 -3620.18c-0.08,25.23 16.64,50.58 50.03,69.87 66.54,38.41 173.82,38.41 239.79,0.07 32.8,-19.01 49.19,-43.92 49.26,-68.88z"/>
   <path class="fil5" d="M5669.95 9425.15l0 3619.99c0,25.05 -16.15,50.07 -49.29,68.95 -33.12,19.25 -76.65,28.9 -120.18,28.9l0 -3620.38c43.53,0.36 87.07,-9.26 120.18,-28.52 33.15,-19.25 49.29,-43.92 49.29,-68.94z"/>
   <path class="fil18" d="M5619.94 9355.08c66.54,38.41 66.89,100.57 0.88,138.91 -65.97,38.34 -173.25,38.34 -239.79,-0.07 -66.4,-38.34 -66.75,-100.5 -0.78,-138.84 65.98,-38.33 173.26,-38.33 239.69,0z"/>
   <path class="fil17" d="M5624.43 9215.99l0 185.45c-0.03,18.23 -12.05,36.43 -35.97,50.35 -48.23,28.02 -126.61,28.02 -175.24,-0.04 -24.42,-14.13 -36.65,-32.61 -36.58,-51.1l0 -185.48c-0.07,18.48 12.16,36.96 36.58,51.1 48.62,28.06 127,28.06 175.24,0.03 23.92,-13.92 35.94,-32.11 35.97,-50.31z"/>
   <path class="fil18" d="M5587.79 9164.83c48.62,28.06 48.9,73.49 0.67,101.48 -48.23,28.03 -126.61,28.03 -175.24,-0.03 -48.55,-28.03 -48.8,-73.43 -0.57,-101.45 48.2,-28.03 126.61,-28.03 175.14,0z"/>
   <path class="fil5" d="M5624.5 9215.99l0 185.66c0,18.09 -11.94,36.18 -36.22,50.07 -24.24,14.23 -55.86,21.17 -87.81,21.17l0 -185.66c31.94,0 63.57,-6.93 87.81,-20.78 24.28,-13.89 36.22,-32.37 36.22,-50.47z"/>
   <path class="fil17" d="M1229.92 10320.42l0 76.09c-0.2,67.84 -44.8,135.55 -133.83,187.29 -179.32,104.21 -470.94,104.21 -651.8,-0.22 -90.83,-52.44 -136.19,-121.27 -136,-189.97l0 -76.12c-0.19,68.74 45.17,137.53 136,190.02 180.85,104.39 472.48,104.39 651.8,0.16 89.03,-51.72 133.63,-119.42 133.83,-187.25z"/>
   <path class="fil18" d="M1093.61 10130.13c180.83,104.43 181.81,273.33 2.48,377.54 -179.32,104.23 -470.94,104.23 -651.8,-0.16 -180.49,-104.25 -181.45,-273.17 -2.12,-377.38 179.33,-104.21 470.93,-104.21 651.44,0z"/>
   <path class="fil5" d="M902.92 10239.68c74.6,43 75,112.69 1.04,155.66 -73.97,43.01 -194.22,43.01 -268.81,-0.07 -74.44,-43.01 -74.83,-112.66 -0.87,-155.59 73.95,-43 194.2,-43 268.64,0z"/>
   <path class="fil5" d="M1229.79 10320.63l0 76.09c0,67.63 -44.8,135.3 -133.93,186.93 -90.05,52.59 -208.46,78.66 -326.85,78.21l0 -76.09c118.39,0.43 236.8,-25.62 326.85,-78.17 89.13,-51.65 133.93,-119.33 133.93,-186.97z"/>
   <path class="fil17" d="M938.66 6691.11l0 3620.16c-0.08,24.95 -16.5,49.86 -49.25,68.92 -65.98,38.32 -173.26,38.32 -239.82,-0.07 -33.41,-19.33 -50.09,-44.63 -50.03,-69.9l0 -3620.21c-0.06,25.3 16.63,50.61 50.03,69.9 66.56,38.44 173.84,38.44 239.82,0.11 32.76,-19.05 49.17,-43.96 49.25,-68.91z"/>
   <path class="fil5" d="M938.52 6691.14l0 3620c0,25.05 -16.16,50.1 -49.29,68.94 -33.13,19.29 -76.67,28.94 -120.2,28.94l0 -3620.45c43.53,0.39 87.08,-9.23 120.2,-28.48 33.14,-19.26 49.29,-43.89 49.29,-68.95z"/>
   <path class="fil18" d="M888.5 6621.07c66.53,38.44 66.89,100.6 0.91,138.94 -65.98,38.33 -173.26,38.33 -239.82,-0.11 -66.39,-38.33 -66.75,-100.46 -0.77,-138.8 65.98,-38.37 173.28,-38.37 239.68,-0.03z"/>
   <path class="fil17" d="M892.99 6481.97l0 185.49c-0.04,18.19 -12.03,36.43 -35.98,50.31 -48.22,28.03 -126.62,28.03 -175.23,-0.03 -24.43,-14.1 -36.63,-32.62 -36.58,-51.11l0 -185.48c-0.05,18.48 12.15,37 36.58,51.1 48.6,28.06 127,28.06 175.23,0.04 23.95,-13.89 35.94,-32.12 35.98,-50.32z"/>
   <path class="fil18" d="M856.35 6430.77c48.63,28.1 48.89,73.54 0.66,101.53 -48.22,28.02 -126.62,28.02 -175.23,-0.04 -48.53,-28.02 -48.79,-73.46 -0.58,-101.49 48.22,-27.99 126.61,-27.99 175.15,0z"/>
   <path class="fil5" d="M893.07 6481.97l0 185.66c0,18.09 -11.94,36.19 -36.2,50.07 -24.27,14.24 -55.86,21.17 -87.84,21.17l0 -185.66c31.97,0 63.57,-6.92 87.84,-20.82 24.26,-13.85 36.2,-32.36 36.2,-50.42z"/>
   <path class="fil11" d="M5805.32 10200.7l-2.68 946.36c-0.11,41.63 -14.8,70.86 -38.48,84.63l208.28 -121.03c23.64,-13.77 38.33,-42.99 38.44,-84.62l2.72 -946.37 -208.28 121.03z"/>
   <path class="fil0" d="M5881.68 9851.21l-5484.94 -3166.72c-36.75,-21.21 -70.06,-23.18 -94.14,-9.19l-208.26 121.02c24.07,-13.99 57.39,-12.05 94.15,9.2l5484.95 3166.72c73.01,42.19 132.13,144.52 131.88,228.46l208.28 -121.03c0.21,-83.92 -58.88,-186.26 -131.92,-228.46z"/>
   <path class="fil9" d="M5673.44 9972.25c73.01,42.19 132.13,144.52 131.88,228.46l-2.68 946.36c-0.25,83.93 -59.76,117.5 -132.76,75.37l-5484.93 -3166.71c-73.03,-42.19 -132.13,-144.25 -131.89,-228.14l2.67 -946.44c0.25,-83.89 59.74,-117.78 132.76,-75.62l5484.95 3166.72z"/>
   <polygon class="fil2" points="1013.33,7281.73 53.02,7796.28 54.69,7220.53 496.66,6983.73 "/>
   <polygon class="fil2" points="1947.45,7821.19 822.52,8423.98 306.69,8125.94 1431.62,7523.19 "/>
   <polygon class="fil2" points="2882.01,8360.65 1757.08,8963.4 1241.25,8665.43 2366.18,8062.62 "/>
   <polygon class="fil2" points="3816.57,8900.08 2691.63,9503.32 2175.39,9204.86 3300.31,8602.11 "/>
   <polygon class="fil2" points="4751.11,9439.57 3626.17,10042.74 3109.96,9744.32 4234.86,9141.54 "/>
   <path class="fil2" d="M5684.82 9979.42l-1124.11 602.78 -516.21 -297.99 1124.94 -602.75 504.01 290.79c3.79,2.15 7.6,4.67 11.38,7.17z"/>
   <polygon class="fil2" points="5804.68,10381.28 5803.03,10956.2 5494.88,11121.69 4979.49,10823.66 "/>
   <polygon class="fil4" points="1223.94,7161.87 1014.17,7282.15 496.66,6983.73 705.6,6863.02 "/>
   <polygon class="fil4" points="2158.08,7701.33 1948.7,7821.61 1430.78,7522.77 1639.73,7402.01 "/>
   <polygon class="fil4" points="3092.22,8240.75 2882.85,8361.04 2364.93,8062.19 2573.86,7941.48 "/>
   <polygon class="fil4" points="4026.34,8780.25 3816.96,8900.53 3299.03,8601.69 3508.43,8480.94 "/>
   <polygon class="fil4" points="4960.48,9319.29 4750.68,9439.57 4233.2,9140.72 4442.12,9019.97 "/>
   <path class="fil4" d="M5894.19 9859.13l-209.79 120.29c-3.79,-2.5 -7.17,-5.02 -10.96,-7.17l-505.71 -292.06 208.95 -120.71 504.83 291.64c4.21,2.54 8.47,5.09 12.68,8.01z"/>
   <polygon class="fil1" points="6013.21,10261.83 6011.09,10838.44 5803.03,10958.31 5804.68,10382.16 "/>
   <polygon class="fil19" points="4511.69,10554.36 2029.09,9121.21 2029.48,9120.65 2216.55,9228.67 2691.63,9503.32 2691.95,9503.15 3320.18,9865.85 3626.17,10042.74 3626.39,10042.63 4044.64,10284.13 4044.5,10284.2 4511.44,10553.76 "/>
   <path class="fil20" d="M4044.64 10284.13l-418.24 -241.5 568.89 -305.03 149.44 385.75 -300.09 160.78zm-724.46 -418.28l-628.23 -362.7 1123.74 -602.58 71.27 41.13 123.9 319.88 -900.9 482.74 210.21 121.52zm-1103.63 -637.17l-187.07 -108.02 348.64 -490.03 503.01 -269.51 418.3 241.46 -1124.04 602.3 41.16 23.81z"/>
   <polygon class="fil21" points="2378.12,8630.63 2660.48,8233.76 2881.13,8361.11 "/>
   <polygon class="fil21" points="2691.63,9503.32 2216.55,9228.67 2175.39,9204.86 3299.43,8602.57 3815.69,8900.57 2691.95,9503.15 "/>
   <polygon class="fil21" points="3626.17,10042.74 3320.18,9865.85 3109.96,9744.32 4010.86,9261.58 4195.28,9737.6 3626.39,10042.63 "/>
   <polygon class="fil21" points="4511.44,10553.76 4044.5,10284.2 4044.64,10284.13 4344.72,10123.35 "/>
   <polygon class="fil22" points="3887.92,8941.39 3817.07,8900.46 4025.87,8780.5 4096.16,8821.06 "/>
   <polygon class="fil20" points="3887.21,8941.81 3815.72,8900.53 3816.36,8900.18 3816.96,8900.53 3817.07,8900.46 3887.92,8941.39 "/>
   <polygon class="fil22" points="3299.29,8601.55 3107.05,8490.55 3315.25,8370.27 3507.7,8481.36 "/>
   <polygon class="fil20" points="3299.51,8602.54 3106.31,8490.97 3107.05,8490.55 3299.29,8601.55 3299.03,8601.69 3300.01,8602.25 "/>
   <polygon class="fil21" points="3815.72,8900.53 3299.51,8602.54 3300.01,8602.25 3816.36,8900.18 "/>
   <polygon class="fil23" points="3816.96,8900.53 3816.36,8900.18 3300.01,8602.25 3299.03,8601.69 3299.29,8601.55 3507.7,8481.36 4025.87,8780.5 3817.07,8900.46 "/>
   <path class="fil12" d="M4236.98 10619.77l-248.17 144.25c23.18,-13.47 31.05,-52.1 12.4,-100.15l248.21 -144.22c18.62,48.07 10.74,86.69 -12.44,100.12z"/>
   <path class="fil12" d="M2668.25 7446.69l248.19 -144.25c14.95,-8.69 34.87,-5.86 54.74,5.66l-248.19 144.2c-19.87,-11.48 -39.8,-14.3 -54.74,-5.61z"/>
   <polygon class="fil12" points="2789.51,7535.1 3037.7,7390.86 4249.42,10519.65 4001.21,10663.87 "/>
   <path class="fil12" d="M2722.99 7452.3l248.19 -144.2c25.95,14.95 51.84,44.7 66.52,82.76l-248.19 144.24c-14.67,-38.05 -40.57,-67.81 -66.52,-82.8z"/>
   <path class="fil24" d="M2722.99 7452.3c25.95,14.99 51.85,44.75 66.52,82.8l1211.7 3128.77c29.61,76.32 -7.67,128.87 -66.96,94.63l-2437.18 -1407.1c-59.59,-34.42 -96.19,-129.62 -66.52,-171.7l1225.45 -1721.67c14.99,-20.96 41.03,-20.7 66.99,-5.73z"/>
   <path class="fil2" d="M2722.32 7605.88c23.55,13.6 47.04,40.61 60.33,75.1l1099.12 2838.15c26.89,69.19 -6.96,116.82 -60.74,85.76l-2210.74 -1276.35c-54.04,-31.2 -87.26,-117.57 -60.34,-155.73l1111.61 -1561.73c13.59,-18.98 37.21,-18.76 60.75,-5.2z"/>
   <path class="fil24" d="M2721.8 7728.04c21.63,12.51 43.18,37.28 55.42,69.01l1009.6 2606.87c24.66,63.58 -6.43,107.32 -55.83,78.8l-2030.62 -1172.35c-49.64,-28.7 -80.15,-107.99 -55.42,-143.05l1021.04 -1434.52c12.49,-17.46 34.18,-17.25 55.81,-4.77z"/>
   <path class="fil25" d="M2736.38 9347.48l-79.13 -45.66c-25.06,-14.49 -45.37,-53.29 -45.37,-86.72l0 -1048.11c0,-33.4 20.3,-48.77 45.37,-34.28l79.13 45.69c25.06,14.49 45.37,53.26 45.37,86.69l0 1048.14c0,33.4 -20.3,48.73 -45.37,34.25z"/>
   <path class="fil25" d="M2798.18 9651.88c0,64.21 -45.37,90.11 -101.37,57.78 -55.99,-32.33 -101.36,-110.61 -101.36,-174.88 0,-64.21 45.37,-90.11 101.36,-57.78 56,32.33 101.37,110.61 101.37,174.88z"/>
   <path class="fil0" d="M10292.71 11047.24l1048.18 -603.91c35.05,-20.24 88.02,-22.44 118.34,-4.89l416.1 239.27 3617.94 -2083.48 -450.9 -259.31c-30.35,-17.49 -26.5,-48.09 8.51,-68.31l1048.18 -603.92c35.02,-20.25 87.99,-22.41 118.35,-4.91l1212.8 697.42c30.36,17.56 26.54,48.16 -8.47,68.38l-1048.22 603.92c-35.02,20.21 -87.99,22.4 -118.34,4.88l-180.82 -104.01 -3617.91 2083.48 215.59 124.02c30.36,17.49 26.54,48.09 -8.47,68.3l-1048.18 603.91c-35.02,20.25 -88.03,22.45 -118.38,4.92l-1212.81 -697.42c-30.32,-17.53 -26.54,-48.13 8.51,-68.35z"/>
   <path class="fil26" d="M16016.54 7756.06c8.58,-4.91 17.88,-9.58 27.74,-13.85l535.32 -230.75 0.99 351.89 -535.32 230.75c-9.9,4.28 -19.15,8.91 -27.78,13.85 -47.53,27.49 -74.85,64.88 -74.71,108.69l-0.99 -351.88c-0.14,-43.82 27.15,-81.18 74.75,-108.7z"/>
   <path class="fil26" d="M16079.86 8520.55c292.14,0 502.29,-66.22 652.16,-152.76 281.96,-162.76 347,-385.57 350.47,-397.3l0.95 351.88c-3.39,11.74 -68.48,234.51 -350.47,397.3 -149.83,86.51 -359.95,152.77 -652.12,152.77 -127.64,0 -249.73,30.95 -340.29,83.25l-0.99 -351.88c90.57,-52.27 212.66,-83.26 340.29,-83.26z"/>
   <polygon class="fil26" points="12636.25,10395.52 12637.23,10747.39 15740.56,8955.69 15739.57,8603.81 "/>
   <path class="fil27" d="M11171.83 10553.2c52.55,-30.35 125.8,-46.23 200.93,-42.87 174.28,7.94 328.35,46.66 449.07,110.43 55.02,29.02 84.56,69.34 84.7,110.29l1.02 351.9c-0.14,-40.96 -29.68,-81.28 -84.73,-110.34 -120.71,-63.79 -274.75,-102.43 -449.07,-110.39 -75.13,-3.4 -148.39,12.51 -200.9,42.83 -8.62,4.94 -16.64,10.32 -24.06,16.05l-0.95 -351.9c7.38,-5.72 15.41,-11.08 23.99,-16z"/>
   <polygon class="fil26" points="10747.71,10878.5 10748.73,11230.39 11148.79,10921.1 11147.84,10569.19 "/>
   <path class="fil27" d="M10652.01 10721.71c22.73,98.67 92.06,153.9 95.7,156.79l1.02 351.88c-3.68,-2.88 -73.01,-58.16 -95.69,-156.78 -4.28,-18.59 -6.36,-37.03 -6.43,-55.26l-0.99 -351.9c0.03,18.24 2.11,36.69 6.39,55.27z"/>
   <path class="fil28" d="M11821.82 10620.75c86.58,45.67 110.08,119.19 55.19,179.45l-338.49 371.11c20.24,-1.94 405.07,-38.94 687.06,-201.7 149.83,-86.51 264.89,-208.07 265.85,-377.27 0.42,-73.95 54.27,-144.56 144.81,-196.82l3103.32 -1791.71c90.57,-52.27 212.66,-83.26 340.29,-83.26 292.14,0 502.29,-66.22 652.16,-152.73 281.96,-162.79 347,-385.6 350.47,-397.33l-641.83 194.85c-104.14,31.59 -231.28,17.88 -309.83,-32.44 -109.44,-70.25 -175.74,-159.58 -188.11,-254.21 -6.53,-49.79 21.24,-92.24 73.82,-122.63 8.58,-4.91 17.88,-9.58 27.74,-13.85l535.32 -230.75c-5.02,-2.08 -100.36,-42.33 -270.4,-55.93 -237.72,-18.8 -464.05,31.51 -623.35,123.5 -114.42,66.05 -194.29,153.61 -218.95,252.53l-70.08 282.06c-15.13,61.17 -64.28,117.82 -139.94,161.56l-3186.47 1839.66c-75.7,43.71 -173.68,71.99 -279.38,80.58l-487.3 39.79c-170.79,13.88 -322.17,59.83 -436.56,125.87 -159.27,91.99 -246.84,222.91 -215.17,360.65 22.73,98.67 92.06,153.9 95.7,156.79l400.12 -309.31c7.38,-5.72 15.41,-11.08 23.99,-16 52.55,-30.35 125.8,-46.23 200.93,-42.87 174.28,7.94 328.35,46.66 449.07,110.43z"/>
   <polygon class="fil27" points="12480.58,10281.45 15592,8485 15389.77,8368.24 12278.31,10164.66 "/>
   <polygon class="fil26" points="15389.77,8418.92 12322.24,10189.99 12278.34,10164.66 15389.77,8368.24 15592,8485 15548.1,8510.34 "/>
   <path class="fil26" d="M11538.53 11171.31l1.02 351.89c20.24,-1.98 405.03,-38.94 687.03,-201.71 149.83,-86.51 264.89,-208.06 265.84,-377.26 0.43,-73.95 54.32,-144.56 144.81,-196.84l-0.98 -351.87c-90.54,52.26 -144.39,122.87 -144.81,196.82 -0.96,169.2 -116.02,290.76 -265.85,377.27 -281.99,162.76 -666.81,199.76 -687.06,201.7z"/>
   <path class="fil0" d="M15881.77 6924.89l-2191.69 -1265.39c-102.41,-59.12 -89.58,-162.37 28.69,-230.68l997.36 -575.86c118.28,-68.27 297.16,-75.69 399.6,-16.57l2191.68 1265.42c102.44,59.12 89.58,162.41 -28.66,230.65l-997.43 575.86c-118.24,68.31 -297.15,75.73 -399.55,16.57z"/>
   <path class="fil29" d="M17192.42 5448.64l-581.12 0 0 230.79 -1458.02 -841.81c-92.38,-53.32 -253.73,-46.65 -360.41,14.95l-77.81 44.92 0 -19.29 -910.01 0 0 623.17 1.1 0c4.24,29.55 24.27,57.32 61.27,78.66l1976.77 1141.29c92.37,53.36 253.76,46.65 360.41,-14.95l899.58 -519.36c56.65,-32.69 86.16,-74.25 87.89,-114.03l0.35 0 0 -624.34z"/>
   <path class="fil30" d="M17192.35 5448.71l0 624.3 -0.35 0c-1.52,39.65 -31.34,81.21 -87.64,114.07l-899.62 519.29c-44.21,25.3 -97.81,41.55 -152.24,47.63l0 -1397.02 558.61 322.52 0 -230.79 581.23 0z"/>
   <path class="fil30" d="M15844.2 6110.76l-1976.77 -1141.29c-92.41,-53.36 -80.82,-146.51 25.86,-208.1l899.59 -519.39c106.68,-61.55 268.03,-68.28 360.41,-14.95l1976.8 1141.32c92.38,53.36 80.79,146.51 -25.9,208.1l-899.58 519.36c-106.65,61.59 -268.04,68.31 -360.41,14.95z"/>
   <path class="fil13" d="M17192.42 4776.07l-581.12 0 0 230.79 -1458.02 -841.81c-92.38,-53.32 -253.73,-46.65 -360.41,14.95l-77.81 44.96 0 -19.33 -910.01 0 0 623.17 1.1 0c4.24,29.54 24.27,57.32 61.27,78.66l1976.77 1141.32c92.37,53.33 253.76,46.61 360.41,-14.95l899.58 -519.39c56.65,-32.7 86.16,-74.25 87.89,-114.03l0.35 0 0 -624.34z"/>
   <path class="fil12" d="M17192.35 4776.14l0 624.3 -0.35 0c-1.52,39.65 -31.34,81.24 -87.64,114.07l-899.62 519.32c-44.21,25.3 -97.81,41.52 -152.24,47.6l0 -1397.02 558.61 322.52 0 -230.79 581.23 0z"/>
   <path class="fil24" d="M15844.2 5438.21l-1976.77 -1141.32c-92.41,-53.32 -80.82,-146.51 25.86,-208.1l899.59 -519.36c106.68,-61.55 268.03,-68.31 360.41,-14.95l1976.8 1141.32c92.38,53.33 80.79,146.48 -25.9,208.03l-899.58 519.43c-106.65,61.55 -268.04,68.23 -360.41,14.95z"/>
   <path class="fil31" d="M15804.66 5254.82l-1750.43 -1010.64c-81.85,-47.18 -71.56,-129.69 22.9,-184.22l796.57 -459.92c94.46,-54.56 237.36,-60.46 319.13,-13.25l1750.47 1010.65c81.77,47.21 71.52,129.69 -22.93,184.21l-796.57 459.92c-94.46,54.56 -237.37,60.46 -319.14,13.25z"/>
   <path class="fil32" d="M14519.19 5252.52l-354.19 -206.55c-6.18,-3.71 -14.8,-3.26 -24.34,2.22 -8.16,4.77 -15.66,12.4 -21.56,21.38 -7.77,11.77 -12.72,25.76 -12.72,38.27 0,10.92 3.78,18.59 9.89,22.27l-0.03 0 354.19 206.58 0.74 -1.38c5.12,0.57 11.03,-0.84 17.35,-4.52 10.82,-6.22 20.46,-17.67 26.76,-30.39 4.7,-9.51 7.48,-19.79 7.48,-29.26 0,-7.14 -1.58,-12.9 -4.49,-17.07l0.92 -1.55z"/>
   <path class="fil33" d="M14495.34 5255.07c-18.94,10.95 -34.32,37.59 -34.32,59.61 0,22.02 15.38,30.95 34.32,20.07 18.9,-10.96 34.28,-37.67 34.28,-59.65 0,-22.02 -15.38,-30.99 -34.28,-20.03z"/>
   <path class="fil32" d="M15609.7 5882.76l-354.11 -206.55c-6.22,-3.75 -14.85,-3.26 -24.39,2.22 -8.16,4.77 -15.69,12.44 -21.59,21.38 -7.74,11.77 -12.69,25.76 -12.69,38.27 0,10.89 3.79,18.59 9.87,22.26l354.15 206.55 0.78 -1.34c5.09,0.57 10.99,-0.88 17.31,-4.52 10.85,-6.22 20.49,-17.67 26.79,-30.39 4.71,-9.55 7.53,-19.79 7.53,-29.23 0,-7.17 -1.66,-12.93 -4.53,-17.1l0.88 -1.55z"/>
   <path class="fil33" d="M15585.85 5885.31c-18.94,10.92 -34.28,37.59 -34.28,59.61 0,21.98 15.34,30.95 34.28,20.03 18.94,-10.92 34.28,-37.63 34.28,-59.61 0,-21.98 -15.34,-30.99 -34.28,-20.03z"/>
   <polygon class="fil30" points="14979.03,4237.45 15171.52,4125.93 15171.52,3861.36 14979.03,3972.89 "/>
   <polygon class="fil34" points="15688.15,4092.86 15514.05,3992.39 15231.2,3829.06 15056.96,3728.49 14933.74,3798.7 14933.77,3798.7 14852.46,3845.14 14852.46,4164.38 14979.03,4237.45 14979.03,3972.89 15107.98,3899.31 15637.4,4204.98 15766.49,4427.39 15766.49,4692.07 15893.1,4765.18 15893.1,4445.91 "/>
   <polygon class="fil30" points="15893.1,4765.18 16085.59,4653.62 16085.59,4334.38 15893.1,4445.91 "/>
   <polygon class="fil35" points="15688.15,4092.86 15880.63,3981.33 16085.59,4334.38 15893.1,4445.91 "/>
   <polygon class="fil36" points="15056.96,3728.49 15249.47,3616.94 15880.63,3981.33 15688.15,4092.86 "/>
   <polygon class="fil37" points="14852.46,3845.14 15056.96,3728.49 15249.47,3616.94 15044.94,3733.58 "/>
   <path class="fil0" d="M15377.82 11566.31c62.08,35.79 86.62,88.17 64.14,137.11l-157.43 344.47c-22.37,49.04 -88.13,87.28 -172.73,100.4l-594.16 92.29c-84.45,13.18 -174.88,-0.88 -236.97,-36.67l-436.78 -252.21c-62.08,-35.86 -86.54,-88.1 -64.17,-137.14l157.4 -344.47c22.4,-49.04 88.16,-87.28 172.76,-100.4l594.16 -92.31c84.56,-13.09 174.91,0.86 236.97,36.72l436.81 252.21z"/>
   <path class="fil26" d="M15350.22 11037.95l-140.01 306.44c-19.89,43.65 -78.41,77.68 -153.68,89.34l-528.61 82.09 -1.7 599.63 528.61 -82.16c75.24,-11.65 133.76,-45.65 153.69,-89.25l140.04 -306.49c4.84,-10.6 7.24,-21.38 7.28,-32.09l1.69 -599.63c0,10.7 -2.43,21.53 -7.31,32.12z"/>
   <path class="fil38" d="M14317.1 11483.16l-388.57 -224.35c-41.84,-24.1 -64.42,-56.62 -64.31,-89.93l-1.7 599.63c-0.1,33.32 22.52,65.8 64.29,89.92l388.59 224.37c55.23,31.87 135.7,44.37 210.83,32.65l1.7 -599.63c-75.14,11.74 -155.59,-0.78 -210.83,-32.66z"/>
   <path class="fil11" d="M15293.18 10915.93c55.23,31.91 77.07,78.44 57.04,122.03l-140.01 306.44c-19.89,43.65 -78.41,77.68 -153.68,89.34l-528.61 82.09c-75.14,11.74 -155.59,-0.78 -210.83,-32.66l-388.57 -224.35c-55.23,-31.88 -77,-78.38 -57.07,-122.03l140.05 -306.45c19.89,-43.6 78.41,-77.64 153.64,-89.29l528.61 -82.14c75.24,-11.66 155.63,0.79 210.83,32.69l388.6 224.33z"/>
   <path class="fil36" d="M14980.88 11293.54c-194.75,112.44 -511.55,111.92 -707.53,-1.23 -196.01,-113.19 -197,-296.06 -2.25,-408.55 194.81,-112.47 511.57,-111.88 707.55,1.28 196.02,113.15 197.01,296.05 2.23,408.5z"/>
   <path class="fil26" d="M14271.09 11001.03c194.81,-112.42 511.57,-111.88 707.55,1.29 72.34,41.74 118.03,92.99 137.22,146.7 32.94,-92.17 -12.79,-192.13 -137.22,-263.97 -195.98,-113.16 -512.74,-113.75 -707.55,-1.28 -122.87,70.97 -167.75,169.98 -134.92,261.79 18.93,-53.01 63.85,-103.43 134.92,-144.52z"/>
   <path class="fil26" d="M15099.22 11184.38c-12.15,20.31 -28.31,40.01 -48.44,58.39 -20.14,-18.88 -44.14,-36.46 -72.13,-52.62 -196.05,-113.05 -512.81,-113.68 -707.59,-1.27 -27,15.66 -50.35,32.79 -69.86,50.85 -20.14,-18.72 -36.29,-38.51 -48.31,-59.02 23.82,-39.82 63.19,-77.2 118.17,-109.04 194.78,-112.4 511.54,-111.92 707.59,1.31 56.29,32.43 96.4,70.68 120.57,111.41z"/>
   <path class="fil26" d="M15005.82 11277.93c-7.98,5.47 -16.33,10.74 -24.94,15.69 -28.95,16.62 -60.46,30.89 -94.04,42.55 -159.55,-57.08 -362.17,-57.74 -521.75,-1.94 -32.62,-11.67 -63.47,-25.55 -91.81,-41.88 -9.61,-5.44 -18.55,-11.2 -27.17,-17.13 7.98,-5.42 16.29,-10.69 24.94,-15.66 194.78,-112.42 511.54,-111.92 707.59,1.27 9.58,5.44 18.55,11.19 27.18,17.1z"/>
   <path class="fil0" d="M16720.74 10725.22c40.4,23.32 56.36,57.39 41.74,89.23l-102.44 224.17c-14.56,31.91 -57.36,56.79 -112.41,65.35l-386.66 60.07c-54.98,8.54 -113.86,-0.61 -154.21,-23.92l-284.26 -164.12c-40.43,-23.31 -56.32,-57.36 -41.77,-89.26l102.41 -224.18c14.59,-31.87 57.39,-56.75 112.44,-65.3l386.66 -60.08c55.05,-8.54 113.82,0.57 154.25,23.9l284.25 164.14z"/>
   <path class="fil26" d="M16702.79 10381.34l-91.13 199.46c-12.93,28.41 -51.07,50.54 -100.01,58.13l-344.01 53.43 -1.09 390.23 343.98 -53.46c48.97,-7.56 87.07,-29.69 100,-58.1l91.17 -199.44c3.15,-6.9 4.7,-13.92 4.74,-20.93l1.12 -390.16c-0.03,6.95 -1.58,13.95 -4.77,20.84z"/>
   <path class="fil38" d="M16030.43 10671.1l-252.88 -146.02c-27.18,-15.72 -41.91,-36.81 -41.84,-58.51l-1.12 390.2c-0.07,21.69 14.66,42.82 41.87,58.56l252.88 146c35.94,20.72 88.31,28.88 137.21,21.25l1.09 -390.23c-48.9,7.63 -101.27,-0.49 -137.21,-21.25z"/>
   <path class="fil11" d="M16665.65 10301.94c35.98,20.78 50.14,51.11 37.14,79.39l-91.13 199.46c-12.93,28.41 -51.07,50.54 -100.01,58.13l-344.01 53.43c-48.9,7.63 -101.27,-0.49 -137.21,-21.25l-252.88 -146.02c-35.93,-20.73 -50.1,-51.02 -37.13,-79.39l91.13 -199.45c12.96,-28.38 51.06,-50.53 100,-58.09l344.01 -53.43c48.98,-7.6 101.24,0.49 137.22,21.2l252.87 146.02z"/>
   <path class="fil36" d="M16462.42 10547.68c-126.78,73.22 -332.91,72.82 -460.48,-0.82 -127.58,-73.64 -128.18,-192.65 -1.41,-265.83 126.75,-73.18 332.91,-72.8 460.45,0.84 127.52,73.64 128.2,192.66 1.44,265.81z"/>
   <path class="fil26" d="M16000.54 10357.35c126.75,-73.17 332.91,-72.82 460.45,0.82 47.07,27.21 76.78,60.52 89.26,95.47 21.45,-60 -8.3,-125.02 -89.26,-171.77 -127.53,-73.64 -333.69,-74.02 -460.45,-0.84 -80,46.18 -109.19,110.6 -87.85,170.4 12.33,-34.53 41.55,-67.39 87.85,-94.08z"/>
   <path class="fil26" d="M16539.42 10476.69c-7.91,13.22 -18.44,26 -31.55,37.98 -13.07,-12.3 -28.7,-23.74 -46.93,-34.24 -127.56,-73.61 -333.72,-74.04 -460.45,-0.85 -17.6,10.22 -32.8,21.34 -45.48,33.08 -13.11,-12.19 -23.64,-25.05 -31.45,-38.37 15.52,-25.9 41.1,-50.28 76.93,-71 126.72,-73.14 332.88,-72.82 460.45,0.86 36.64,21.12 62.76,46.01 78.48,72.54z"/>
   <path class="fil26" d="M16478.64 10537.54c-5.19,3.57 -10.6,6.99 -16.22,10.21 -18.83,10.82 -39.33,20.11 -61.16,27.7 -103.9,-37.17 -235.74,-37.58 -339.59,-1.26 -21.21,-7.59 -41.35,-16.64 -59.72,-27.28 -6.26,-3.54 -12.09,-7.28 -17.71,-11.13 5.2,-3.54 10.64,-6.97 16.26,-10.22 126.72,-73.14 332.88,-72.82 460.45,0.84 6.25,3.54 12.09,7.29 17.7,11.14z"/>
   <path class="fil7" d="M11606.16 2291.5l-141.78 82.4c51.46,3.86 92.94,-6.64 126.4,-26.07l141.81 -82.41c-33.47,19.43 -74.95,29.93 -126.43,26.08z"/>
   <path class="fil7" d="M11986.78 2523.49l141.8 -82.41c49.72,-28.87 96.51,-77.28 136.76,-152.34l-141.85 82.4c-40.25,75.06 -87,123.47 -136.71,152.35z"/>
   <path class="fil7" d="M13038.27 1400.4l-1246.24 -721.84c-62.76,-36.26 -119.79,-39.62 -160.93,-15.66l-141.81 82.37c41.17,-23.89 98.18,-20.52 160.93,15.7l1246.21 721.84c124.95,72.12 225.77,246.76 225.38,389.95l-1.87 816.15c-0.18,71.1 -25.3,121.13 -65.83,144.67l141.84 -82.41c40.5,-23.53 65.62,-73.57 65.83,-144.67l1.84 -816.15c0.39,-143.19 -100.43,-317.83 -225.35,-389.95z"/>
   <path class="fil6" d="M12896.43 1482.81c124.95,72.12 225.77,246.76 225.38,389.95l-1.87 816.15c-0.39,143.15 -101.88,201 -226.83,128.88l-769.62 -446.63c-140.25,261.64 -360.16,199.66 -506.94,114.92 -89.76,-51.81 -149.05,-109.16 -152.17,-112.17 170.12,12.83 231.32,-131.48 253.48,-236.93l-70.92 -40.99c-124.64,-71.95 -225.77,-246.8 -225.38,-389.99l1.83 -816.12c0.42,-143.19 102.23,-200.86 226.83,-128.91l1246.21 721.84z"/>
   <path class="fil39" d="M12243.96 1956.01c75.55,43 136.54,7.74 136.33,-78.69 -0.25,-86.55 -61.73,-191.56 -137.25,-234.61 -75.52,-42.97 -136.54,-7.74 -136.3,78.8 0.25,86.44 61.7,191.45 137.22,234.5zm413.24 157.18l-102.76 -45.31c-7.53,29.61 -19.15,55.02 -34.35,75.73l64.77 129.51 -96.22 55.44 -81.1 -120c-25.72,2.75 -53.68,0.28 -83.33,-8.02l-11.34 111.14 -136.47 -77.85 -11.88 -124.28c-29.72,-25.69 -57.78,-55.09 -83.5,-87.28l-80.75 27.74 -96.78 -165.52 64.35 -55.83c-15.31,-38.13 -27.11,-76.93 -34.81,-115.23l-102.83 -71.98 -0.35 -156.23 102.82 45.45c7.53,-29.61 19.23,-55.02 34.43,-75.73l-64.74 -129.48 96.29 -55.4 81.07 120.14c25.51,-2.71 53.39,-0.28 82.9,7.95l11.31 -111.17 136.4 77.7 11.98 124.42c29.72,25.62 57.78,54.95 83.5,87.11l80.78 -27.77 96.79 165.48 -64.28 55.87c15.3,38.12 27.14,76.86 34.88,115.33l102.79 71.84 0.43 156.23z"/>
  </g>
 </g>
</svg>
