<svg width="82" height="40" viewBox="0 0 82 40" fill="none" xmlns="http://www.w3.org/2000/svg">
<g clip-path="url(#clip0)">
<path opacity="0.9" d="M58.4623 20.0368C57.7742 20.0368 57.1353 19.668 56.7667 19.1026L53.9406 14.5052L53.8915 14.4068L49.9105 7.79342L44.9464 16.054C48.8046 16.054 51.9256 19.1763 51.9256 23.0362V29.9692C51.9256 31.0755 51.0163 31.9852 49.9105 31.9852C48.8046 31.9852 47.8954 31.0755 47.8954 29.9692V23.3312C47.8954 21.5119 46.4209 20.0614 44.627 20.0614H41.3586C39.8104 20.0614 38.8766 18.3896 39.663 17.062L48.2148 2.82723C48.9766 1.5488 50.8443 1.5488 51.6061 2.82723L60.158 17.062C60.9443 18.365 59.9859 20.0368 58.4623 20.0368Z" fill="#6B4EE6"/>
<path opacity="0.9" d="M18.0376 6.0233H2.0151C0.909252 6.0233 0 5.11365 0 4.00731C0 2.90098 0.909252 1.99133 2.0151 1.99133H18.0376C19.1434 1.99133 20.0527 2.90098 20.0527 4.00731C20.0281 5.11365 19.1434 6.0233 18.0376 6.0233Z" fill="#6B4EE6"/>
<path opacity="0.9" d="M10.0263 2.01599C11.1322 2.01599 12.0414 2.92564 12.0414 4.03197V18.0701C12.0414 19.1764 11.1322 20.0861 10.0263 20.0861C8.92048 20.0861 8.01123 19.1764 8.01123 18.0701V4.00739C8.01123 2.90106 8.92048 2.01599 10.0263 2.01599Z" fill="#6B4EE6"/>
<path opacity="0.9" d="M23.8125 6.0233H35.8293C36.9352 6.0233 37.8444 5.11365 37.8444 4.00731C37.8444 2.90098 36.9352 1.99133 35.8293 1.99133H23.8125C22.7066 1.99133 21.7974 2.90098 21.7974 4.00731C21.8219 5.11365 22.7066 6.0233 23.8125 6.0233Z" fill="#6B4EE6"/>
<path opacity="0.9" d="M23.8125 13.0301H35.8293C36.9352 13.0301 37.8444 12.1204 37.8444 11.0141C37.8444 9.90776 36.9352 8.99811 35.8293 8.99811H23.8125C22.7066 8.99811 21.7974 9.90776 21.7974 11.0141C21.8219 12.1204 22.7066 13.0301 23.8125 13.0301Z" fill="#6B4EE6"/>
<path d="M23.8125 20.0368H35.8293C36.9352 20.0368 37.8444 19.1272 37.8444 18.0209C37.8444 16.9145 36.9352 16.0049 35.8293 16.0049H23.8125C22.7066 16.0049 21.7974 16.9145 21.7974 18.0209C21.8219 19.1518 22.7066 20.0368 23.8125 20.0368Z" fill="#6B4EE6"/>
<path d="M77.9255 27.9534C77.9255 31.2969 75.2223 34.0013 71.8802 34.0013H63.8935C62.7877 34.0013 61.8784 33.0917 61.8784 31.9853C61.8784 30.879 62.7877 29.9694 63.8935 29.9694H71.8802C73.0106 29.9694 73.9199 29.0597 73.9199 27.9288C73.9199 26.7979 73.0106 25.8882 71.8802 25.8882H63.8935C62.7877 25.8882 61.8784 24.9786 61.8784 23.8722C61.8784 22.7659 62.7877 21.8563 63.8935 21.8563H71.8802C75.2223 21.9054 77.9255 24.6098 77.9255 27.9534Z" fill="#16F0DF"/>
<path d="M63.9671 39.9999H63.7705C62.7384 39.9999 61.9028 39.164 61.9028 38.1315V23.7737C61.9028 22.7412 62.7384 21.9053 63.7705 21.9053H63.9671C64.9992 21.9053 65.8347 22.7412 65.8347 23.7737V38.1069C65.8347 39.164 64.9992 39.9999 63.9671 39.9999Z" fill="#16F0DF"/>
<path opacity="0.9" d="M23.8125 20.0368C22.7066 20.0368 21.7974 19.1272 21.7974 18.0208V4.00731C21.7974 2.90098 22.7066 1.99133 23.8125 1.99133C24.9183 1.99133 25.8275 2.90098 25.8275 4.00731V18.0454C25.8275 19.1518 24.9183 20.0368 23.8125 20.0368Z" fill="#6B4EE6"/>
<path d="M60.4284 23.9459V29.4284C60.4284 35.2551 55.7101 39.9754 49.886 39.9754C44.0619 39.9754 39.3682 35.2551 39.3682 29.4284V23.9459C39.3682 22.8396 40.2774 21.9299 41.3833 21.9299C42.4891 21.9299 43.3984 22.8396 43.3984 23.9459V29.453C43.3984 33.067 46.3227 35.968 49.9106 35.9926C53.523 35.9926 56.4473 33.067 56.4473 29.453V23.9459C56.4473 22.8396 57.3566 21.9299 58.4624 21.9299C59.5437 21.9545 60.4284 22.8396 60.4284 23.9459Z" fill="#16F0DF"/>
<path opacity="0.9" d="M65.9082 0V0.0983405L65.8345 0H65.9082Z" fill="#6B4EE6"/>
<path opacity="0.9" d="M81.9314 4.22855V18.0454C81.9314 19.1517 81.0468 20.0614 79.9163 20.0614C78.8105 20.0614 77.9012 19.1763 77.9012 18.0454V8.82597L73.2567 13.4726C72.5195 14.2101 71.3645 14.2347 70.6026 13.5709C70.5535 13.5217 70.5044 13.4971 70.4552 13.448L65.8598 8.82597V18.0454C65.8598 19.1517 64.9751 20.0614 63.8447 20.0614C62.7143 20.0614 61.8296 19.1763 61.8296 18.0454V4.22855C61.7559 3.63851 61.9525 3.04846 62.3948 2.60593L62.4685 2.53218C63.2303 1.77004 64.4836 1.77004 65.2454 2.53218L71.8805 9.17016L78.5156 2.53218C79.2774 1.77004 80.5307 1.77004 81.2925 2.53218L81.3417 2.58135C81.8086 3.04846 82.0052 3.66309 81.9314 4.22855Z" fill="#6B4EE6"/>
</g>
<defs>
<clipPath id="clip0">
<rect width="81.9556" height="40" fill="white"/>
</clipPath>
</defs>
</svg>